<svg width="78" height="71" xmlns="http://www.w3.org/2000/svg"><g fill-rule="nonzero" fill="none"><path d="M18.695.004h26.759c10.41 0 18.103 1.05 23.15 3.93 5.048 2.881 7.572 7.365 7.572 13.453 0 4.004-1.1 7.422-3.301 10.254s-5.1 4.655-8.698 5.468v.489c4.75 1.172 8.191 3.125 10.322 5.859 2.13 2.734 3.196 6.283 3.196 10.645 0 6.477-2.61 11.58-7.833 15.307C64.639 69.136 57.522 71 48.51 71H18.695V.004zm23.307 27.002h5.81c2.767 0 4.908-.57 6.421-1.71 1.514-1.138 2.27-2.831 2.27-5.077 0-4.004-3.026-6.006-9.081-6.006h-5.42v12.793zm0 14.111v14.99h6.787c6.022 0 9.033-2.539 9.033-7.617 0-2.376-.805-4.199-2.417-5.469-1.611-1.27-3.947-1.904-7.007-1.904h-6.396z" fill="#5197E1"/><path fill="#9FEAFF" d="M42.098 71H.002V.004h42v14.209h-23v12.793h23v14.111h-23v14.99h23z"/></g></svg>
